<svg id="Capa_1" enable-background="new 0 0 510.964 510.964" height="512" viewBox="0 0 510.964 510.964" width="512" xmlns="http://www.w3.org/2000/svg" xmlns:xlink="http://www.w3.org/1999/xlink"><linearGradient id="SVGID_1_" gradientUnits="userSpaceOnUse" x1="315.945" x2="315.945" y1="45.575" y2="420.575"><stop offset=".00000083866" stop-color="#96d1f3"/><stop offset="1" stop-color="#ccfff4"/></linearGradient><linearGradient id="SVGID_2_" gradientUnits="userSpaceOnUse" x1="85.908" x2="85.908" y1="7.788" y2="460.336"><stop offset=".00000036422" stop-color="#a8abff"/><stop offset="1" stop-color="#fac8ff"/></linearGradient><linearGradient id="SVGID_3_" gradientUnits="userSpaceOnUse" x1="255.482" x2="255.482" y1=".491" y2="510.473"><stop offset=".00000011981" stop-color="#174fa3"/><stop offset="1" stop-color="#b044af"/></linearGradient><g><g><circle cx="315.945" cy="233.075" fill="url(#SVGID_1_)" r="187.5"/><path d="m119.038 330.947h-39.595c-20.69-63.579-22.096-133.555-.029-199.388h41.405c10.914-22.037 25.454-42.391 43.333-60.302l-63.168-63.469c-135.019 135.019-114.25 336.475 1.431 452.549 0 0 62.881-64.293 61.885-65.29-18.932-18.933-34.142-40.595-45.262-64.1z" fill="url(#SVGID_2_)"/></g><path d="m479.508 438.918 9.511 11.6c-3.978 3.261-8.073 6.438-12.172 9.441l-8.866-12.099c3.881-2.843 7.759-5.852 11.527-8.942zm20.849-18.913c-3.201 3.201-6.499 6.351-9.801 9.359l10.103 11.088c3.474-3.165 6.941-6.477 10.306-9.842zm-44.36 36.134 8.173 12.578c-42.638 27.707-90.353 41.756-141.818 41.756-70.352 0-136.633-26.47-187.482-74.689-12.637 12.412-22.467 21.956-32.546 31.723l-5.221-5.238c-89.216-89.518-122.742-224.076-76.111-343.692 28.152-72.215 76.485-114.017 79.87-118.086l74.017 70.635c-3.2 3.686-28.085 24.885-47.339 63.761l-2.066 4.171h-40.615c-18.801 59.548-18.775 123.068.077 184.388h38.851l2.031 4.292c10.854 22.942 25.585 43.803 43.786 62.003l2.221 2.221-.013 3.176c-.029 3.686-.055 4.264-26.245 30.109 85.779 81.023 214.996 92.907 310.43 30.892zm-301.861-60.791c-16.095-17.044-29.45-36.14-39.793-56.9h-40.346l-1.686-5.179c-10.711-32.915-16.234-66.94-16.416-101.13-.327-61.372 17.167-104.28 18.123-108.08h42.198c9.937-19.099 22.453-36.744 37.297-52.588l-52.35-49.958c-127.545 133.036-100.204 317.804 1.405 424.862 18.053-17.544 42.08-41.137 51.568-51.027zm-33.191-162.273c0-107.523 87.477-195 195-195s195 87.477 195 195-87.477 195-195 195-195-87.476-195-195zm313.088 135.738c-8.878-7.729-18.404-14.513-28.448-20.293-3.019 7.266-6.337 14.207-9.951 20.76-8.042 14.581-17.179 26.631-27.11 35.954 24.442-7.48 46.69-20.028 65.509-36.421zm61.744-128.238h-69.01c-.71 33.566-6.175 65.661-15.815 93.753 12.068 6.747 23.469 14.815 34.009 24.128 29.905-30.764 48.932-72.145 50.816-117.881zm-47.343-129.212c-10.957 10.168-22.883 18.946-35.572 26.238 8.454 26.68 13.244 56.688 13.906 87.974h69.01c-1.811-43.94-19.442-83.864-47.344-114.212zm-79.91-50.447c17.669 16.589 30.558 39.643 39.282 62.258 10.66-6.349 20.716-13.848 30.021-22.429-19.596-18.063-43.196-31.84-69.303-39.829zm-45.079 87.222c24.993-1.017 49.07-7.11 71.049-17.787-3.506-9.313-7.508-18.1-11.995-26.236-16.31-29.573-37.048-47.198-59.054-50.473zm0 77.437h88.32c-.633-28.778-4.9-56.33-12.402-80.902-23.539 11.154-49.256 17.472-75.918 18.473zm0 84.246c25.876.98 50.952 7.016 74.012 17.633 8.687-26.042 13.623-55.745 14.308-86.88h-88.32zm0 102.688c22.006-3.275 42.744-20.9 59.054-50.473 3.549-6.434 6.798-13.271 9.736-20.456-21.404-10.024-44.716-15.761-68.79-16.749zm-136.515-54.053c10.54-9.313 21.94-17.381 34.009-24.128-9.641-28.092-15.106-60.186-15.815-93.753h-69.01c1.884 45.736 20.911 87.117 50.816 117.881zm76.437 46.778c-9.931-9.324-19.069-21.374-27.11-35.954-3.614-6.553-6.931-13.494-9.951-20.76-10.044 5.78-19.57 12.564-28.448 20.293 18.819 16.393 41.066 28.941 65.509 36.421zm45.078-80.404c-24.075.988-47.386 6.726-68.79 16.749 2.938 7.185 6.188 14.022 9.736 20.456 16.31 29.573 37.048 47.198 59.054 50.473zm0-84.255h-88.32c.684 31.135 5.621 60.838 14.308 86.88 23.061-10.618 48.137-16.653 74.012-17.633zm0-77.428c-26.662-1.001-52.379-7.32-75.918-18.473-7.502 24.571-11.769 52.124-12.402 80.902h88.32zm-59.053-59.032c-4.487 8.136-8.49 16.923-11.995 26.235 21.979 10.677 46.056 16.77 71.049 17.788v-94.497c-22.007 3.275-42.745 20.901-59.054 50.474zm-55.328-3.37c9.304 8.581 19.361 16.08 30.021 22.429 3.587-9.298 7.649-18.103 12.172-26.304 8.042-14.581 17.179-26.631 27.11-35.954-26.108 7.989-49.707 21.766-69.303 39.829zm-57.951 124.83h69.01c.661-31.286 5.451-61.294 13.906-87.974-12.689-7.292-24.615-16.07-35.572-26.238-27.902 30.348-45.533 70.272-47.344 114.212z" fill="url(#SVGID_3_)"/></g></svg>